<svg width="94.801mm" height="94.801mm" version="1.1" viewBox="0 0 94.801 94.801" xmlns="http://www.w3.org/2000/svg">
 <g transform="translate(-57.599 -66.086)" display="none" stroke-linecap="round" stroke-miterlimit="25.2">
  <path d="m79.901 123.51a0.73776 0.73776 0 0 0-0.69434 1.0554l13.358 27.779a0.73776 0.73776 0 0 0 0.94703 0.35997l17.38-7.2103a0.73776 0.73776 0 0 0 0.12744-1.2945l-30.738-20.566a0.73776 0.73776 0 0 0-0.38012-0.12307zm1.8086 2.8525 27.342 18.298-15.46 6.4136zm0 0 11.882 24.712 15.46-6.4136zm34.377 13.557a0.73776 0.73776 0 0 0-0.19987 0.0414l-7.2958 2.6135 1.5259 1.0211 5.0804-1.8195-1.3277 7.7826-4.4209-3.4668-1.564 0.64861 6.0509 4.7428a0.73776 0.73776 0 0 0 1.1812-0.45691l1.7454-10.246a0.73776 0.73776 0 0 0-0.77548-0.86043zm-0.88931 1.8565-5.0804 1.8195 0.90184 0.60339a0.73776 0.73776 0 0 1-0.12744 1.2945l-1.4426 0.59849 4.4209 3.4668zm3.0295-21.151a0.73776 0.73776 0 0 0-0.20586 0.0213 0.73776 0.73776 0 0 0-0.54513 0.56801l-4.0196 19.618 1.6245-0.58215 3.5289-17.224 10.894 13.272-12.72 4.9405-0.28862 1.6947 14.492-5.6283a0.73776 0.73776 0 0 0 0.30279-1.1551l-12.523-15.256a0.73776 0.73776 0 0 0-0.54131-0.26792zm0.38283 2.4005-3.5289 17.224 0.80599-0.28863a0.73776 0.73776 0 0 1 0.19987-0.0414 0.73776 0.73776 0 0 1 0.77548 0.86044l-0.0779 0.45746 12.72-4.9405zm3.3214-14.697a0.73776 0.73776 0 0 0-0.10022 5e-3l-13.511 1.5951a0.73776 0.73776 0 0 0-0.49993 1.179l9.24 12.135 0.39264-1.9175-7.677-10.084 11.194-1.3212-2.4125 10.797a0.73776 0.73776 0 0 1 0.21021 0.17535l0.99277 1.2095 2.8749-12.876a0.73776 0.73776 0 0 0-0.70469-0.89803zm-0.96065 1.5918-11.194 1.3212 7.677 10.084 0.0229-0.11109a0.73776 0.73776 0 0 1 0.54513-0.56801 0.73776 0.73776 0 0 1 0.20586-0.0213 0.73776 0.73776 0 0 1 0.3311 0.0926zm-22.404-14.948a0.73776 0.73776 0 0 0-0.09313 0.0027 0.73776 0.73776 0 0 0-0.59087 0.40136l-9.7148 19.201a0.73776 0.73776 0 0 0 0.73682 1.0663l20.674-2.2274-1.045-1.3729-18.435 1.9861 8.5685-16.941 9.8063 12.822 1.7024-0.20094-11.05-14.448a0.73776 0.73776 0 0 0-0.55929-0.28863zm0.10021 2.1163-8.5685 16.941 18.435-1.9861-0.7134-0.93669a0.73776 0.73776 0 0 1 0.49993-1.179l0.15302-0.018zm-10.201-13.693a0.73776 0.73776 0 0 0-0.57018 1.1894l9.3456 12.059 0.64098-1.2672a0.73776 0.73776 0 0 1 0.11491-0.16555l-7.5986-9.8047 10.818 2.8732-2.7235 6.694a0.73776 0.73776 0 0 1 0.07298-0.0011 0.73776 0.73776 0 0 1 0.55929 0.28863l0.55112 0.72048 3.2239-7.9226a0.73776 0.73776 0 0 0-0.49395-0.99005l-13.739-3.6492a0.73776 0.73776 0 0 0-0.20204-0.02397zm1.9327 2.0106 7.5986 9.8047a0.73776 0.73776 0 0 1 0.47597-0.2358 0.73776 0.73776 0 0 1 0.02015-0.0017l2.7235-6.694zm18.516-12.395a0.73776 0.73776 0 0 0-0.61538 0.37685l-7.4303 13.273 1.4715 0.39101 6.6586-11.892 12.467 18.687-18.521-5.9463a0.73776 0.73776 0 0 1-0.0447 0.15847l-0.49558 1.2182 20.623 6.6221a0.73776 0.73776 0 0 0 0.83757-1.1137l-14.309-21.447a0.73776 0.73776 0 0 0-0.64207-0.3273zm0.0844 2.1489-6.6586 11.892 0.0659 0.01743a0.73776 0.73776 0 0 1 0.5386 0.83158l18.521 5.9463z" display="inline" stop-color="#000000" stroke-linejoin="round" stroke-width="1.0538"/>
  <circle cx="105" cy="113.49" r="43.884" display="inline" fill-opacity="0" stroke="#000" stroke-linejoin="bevel" stroke-width="1.7117"/>
 </g>
 <g transform="translate(-57.599 -66.086)" stroke-miterlimit="25.2">
  <path d="m105 69.602a43.884 43.884 0 0 0-43.884 43.884 43.884 43.884 0 0 0 43.884 43.884 43.884 43.884 0 0 0 43.884-43.884 43.884 43.884 0 0 0-43.884-43.884zm3.915 3.4055a0.73776 0.73776 0 0 1 0.64234 0.32711l14.309 21.447a0.73776 0.73776 0 0 1-0.83767 1.1141l-20.623-6.6223-2.7285 6.704v5.17e-4l10.499 13.728 11.655-1.3762a0.73776 0.73776 0 0 1 0.10025-5e-3 0.73776 0.73776 0 0 1 0.70487 0.89814l-2.8753 12.875v5.2e-4l11.53 14.046a0.73776 0.73776 0 0 1-0.30283 1.1555l-14.492 5.6281-1.3792 8.0941a0.73776 0.73776 0 0 1-1.1808 0.45682l-6.0508-4.7424-14.373 5.9629a0.73776 0.73776 0 0 1-0.94723-0.36018l-13.358-27.779a0.73776 0.73776 0 0 1 0.69402-1.0552 0.73776 0.73776 0 0 1 0.38034 0.12299l28.31 18.942 4.8653-1.743 3.6044-17.589-7.4817-9.8258-20.674 2.2273a0.73776 0.73776 0 0 1-0.73691-1.0661l9.0739-17.934-9.3452-12.059a0.73776 0.73776 0 0 1 0.56999-1.1896 0.73776 0.73776 0 0 1 0.20206 0.02429l13.673 3.6318-1.4712-0.39119 7.4306-13.273a0.73776 0.73776 0 0 1 0.61495-0.37672zm-6.38 14.107a0.73776 0.73776 0 0 1 0.0594 0.02997 0.73776 0.73776 0 0 0-0.0594-0.02997zm0.0868 0.04858a0.73776 0.73776 0 0 1 0.0553 0.03927 0.73776 0.73776 0 0 0-0.0553-0.03927zm0.0837 0.06459a0.73776 0.73776 0 0 1 0.047 0.04393 0.73776 0.73776 0 0 0-0.047-0.04393zm0.0734 0.07441a0.73776 0.73776 0 0 1 0.0372 0.04651 0.73776 0.73776 0 0 0-0.0372-0.04651zm0.0599 0.08165a0.73776 0.73776 0 0 1 0.0326 0.05478 0.73776 0.73776 0 0 0-0.0326-0.05478zm0.0476 0.08733a0.73776 0.73776 0 0 1 0.0243 0.05943 0.73776 0.73776 0 0 0-0.0243-0.05943zm0.0362 0.09612a0.73776 0.73776 0 0 1 0.016 0.06305 0.73776 0.73776 0 0 0-0.016-0.06305zm0.0222 0.09767a0.73776 0.73776 0 0 1 7e-3 0.06718 0.73776 0.73776 0 0 0-7e-3 -0.06718zm9e-3 0.10387a0.73776 0.73776 0 0 1-2e-3 0.06046 0.73776 0.73776 0 0 0 2e-3 -0.06046zm-6e-3 0.10387a0.73776 0.73776 0 0 1-0.0124 0.0708 0.73776 0.73776 0 0 0 0.0103-0.04651 0.73776 0.73776 0 0 0 2e-3 -0.02429zm-0.016 0.08888a0.73776 0.73776 0 0 1-0.0305 0.09353 0.73776 0.73776 0 0 0 0.0305-0.09353zm-4.3651 7.0073a0.73776 0.73776 0 0 0-0.07286 1e-3 0.73776 0.73776 0 0 0-0.02015 0.0016 0.73776 0.73776 0 0 1 0.09302-0.0026zm9.9069 14.938-0.15296 0.0176a0.73776 0.73776 0 0 0-0.1018 0.0196 0.73776 0.73776 0 0 1 0.1018-0.0191zm-0.25476 0.0372a0.73776 0.73776 0 0 0-0.18965 0.0801 0.73776 0.73776 0 0 1 0.18965-0.0801zm-0.2744 0.13901a0.73776 0.73776 0 0 0-0.076 0.0703 0.73776 0.73776 0 0 1 0 5.2e-4 0.73776 0.73776 0 0 1 0.076-0.0708zm10.283 10.538a0.73776 0.73776 0 0 1 0.0941 0.01 0.73776 0.73776 0 0 0-0.0941-0.01zm0.12506 0.0165a0.73776 0.73776 0 0 1 0.0677 0.0176 0.73776 0.73776 0 0 0-0.0677-0.0176zm0.0946 0.0269a0.73776 0.73776 0 0 1 0.063 0.0258 0.73776 0.73776 0 0 0-0.063-0.0258zm0.0904 0.0393a0.73776 0.73776 0 0 1 0.0569 0.0331 0.73776 0.73776 0 0 0-0.0357-0.0233 0.73776 0.73776 0 0 0-0.0212-0.01zm0.0873 0.0522a0.73776 0.73776 0 0 1 0.0506 0.0408 0.73776 0.73776 0 0 0-0.0506-0.0408zm0.0765 0.0625a0.73776 0.73776 0 0 1 0.0672 0.0703 0.73776 0.73776 0 0 0-0.0672-0.0703zm-1.2247 0.3917-0.0233 0.11111-0.25683 1.2552z" stroke-opacity="0"/>
  <path d="m105 69.602a43.884 43.884 0 0 0-43.884 43.884 43.884 43.884 0 0 0 43.884 43.884 43.884 43.884 0 0 0 43.884-43.884 43.884 43.884 0 0 0-43.884-43.884zm3.915 3.4055a0.73776 0.73776 0 0 1 0.64234 0.32711l14.309 21.447a0.73776 0.73776 0 0 1-0.83767 1.1141l-20.623-6.6223-2.7285 6.704v5.17e-4l10.499 13.728 11.655-1.3762a0.73776 0.73776 0 0 1 0.10025-5e-3 0.73776 0.73776 0 0 1 0.70487 0.89814l-2.8753 12.875v5.2e-4l11.53 14.046a0.73776 0.73776 0 0 1-0.30283 1.1555l-14.492 5.6281-1.3792 8.0941a0.73776 0.73776 0 0 1-1.1808 0.45682l-6.0508-4.7424-14.373 5.9629a0.73776 0.73776 0 0 1-0.94723-0.36018l-13.358-27.779a0.73776 0.73776 0 0 1 0.69402-1.0552 0.73776 0.73776 0 0 1 0.38034 0.12299l28.31 18.942 4.8653-1.743 3.6044-17.589-7.4817-9.8258-20.674 2.2273a0.73776 0.73776 0 0 1-0.73691-1.0661l9.0739-17.934-9.3452-12.059a0.73776 0.73776 0 0 1 0.56999-1.1896 0.73776 0.73776 0 0 1 0.20206 0.02429l13.673 3.6318-1.4712-0.39119 7.4306-13.273a0.73776 0.73776 0 0 1 0.61495-0.37672zm-6.38 14.107a0.73776 0.73776 0 0 1 0.0594 0.02997 0.73776 0.73776 0 0 0-0.0594-0.02997zm0.0868 0.04858a0.73776 0.73776 0 0 1 0.0553 0.03927 0.73776 0.73776 0 0 0-0.0553-0.03927zm0.0837 0.06459a0.73776 0.73776 0 0 1 0.047 0.04393 0.73776 0.73776 0 0 0-0.047-0.04393zm0.0734 0.07441a0.73776 0.73776 0 0 1 0.0372 0.04651 0.73776 0.73776 0 0 0-0.0372-0.04651zm0.0599 0.08165a0.73776 0.73776 0 0 1 0.0326 0.05478 0.73776 0.73776 0 0 0-0.0326-0.05478zm0.0476 0.08733a0.73776 0.73776 0 0 1 0.0243 0.05943 0.73776 0.73776 0 0 0-0.0243-0.05943zm0.0362 0.09612a0.73776 0.73776 0 0 1 0.016 0.06305 0.73776 0.73776 0 0 0-0.016-0.06305zm0.0222 0.09767a0.73776 0.73776 0 0 1 7e-3 0.06718 0.73776 0.73776 0 0 0-7e-3 -0.06718zm9e-3 0.10387a0.73776 0.73776 0 0 1-2e-3 0.06046 0.73776 0.73776 0 0 0 2e-3 -0.06046zm-6e-3 0.10387a0.73776 0.73776 0 0 1-0.0124 0.0708 0.73776 0.73776 0 0 0 0.0103-0.04651 0.73776 0.73776 0 0 0 2e-3 -0.02429zm-0.016 0.08888a0.73776 0.73776 0 0 1-0.0305 0.09353 0.73776 0.73776 0 0 0 0.0305-0.09353zm-4.3651 7.0073a0.73776 0.73776 0 0 0-0.07286 1e-3 0.73776 0.73776 0 0 0-0.02015 0.0016 0.73776 0.73776 0 0 1 0.09302-0.0026zm9.9069 14.938-0.15296 0.0176a0.73776 0.73776 0 0 0-0.1018 0.0196 0.73776 0.73776 0 0 1 0.1018-0.0191zm-0.25476 0.0372a0.73776 0.73776 0 0 0-0.18965 0.0801 0.73776 0.73776 0 0 1 0.18965-0.0801zm-0.2744 0.13901a0.73776 0.73776 0 0 0-0.076 0.0703 0.73776 0.73776 0 0 1 0 5.2e-4 0.73776 0.73776 0 0 1 0.076-0.0708zm10.283 10.538a0.73776 0.73776 0 0 1 0.0941 0.01 0.73776 0.73776 0 0 0-0.0941-0.01zm0.12506 0.0165a0.73776 0.73776 0 0 1 0.0677 0.0176 0.73776 0.73776 0 0 0-0.0677-0.0176zm0.0946 0.0269a0.73776 0.73776 0 0 1 0.063 0.0258 0.73776 0.73776 0 0 0-0.063-0.0258zm0.0904 0.0393a0.73776 0.73776 0 0 1 0.0569 0.0331 0.73776 0.73776 0 0 0-0.0357-0.0233 0.73776 0.73776 0 0 0-0.0212-0.01zm0.0873 0.0522a0.73776 0.73776 0 0 1 0.0506 0.0408 0.73776 0.73776 0 0 0-0.0506-0.0408zm0.0765 0.0625a0.73776 0.73776 0 0 1 0.0672 0.0703 0.73776 0.73776 0 0 0-0.0672-0.0703zm-1.2247 0.3917-0.0233 0.11111-0.25683 1.2552z" fill="#247f00" stroke-opacity="0"/>
  <circle cx="105" cy="113.49" r="44.524" fill-opacity="0" stroke="#247f00" stroke-linecap="round" stroke-linejoin="round" stroke-width="5.7528"/>
 </g>
</svg>
