<?xml version="1.0" encoding="UTF-8" standalone="no"?>
<!-- Created with Inkscape (http://www.inkscape.org/) -->

<svg
   width="94.80146mm"
   height="94.80146mm"
   viewBox="0 0 94.801449 94.801449"
   version="1.1"
   id="svg1"
   inkscape:version="1.4.2 (ebf0e940, 2025-05-08)"
   sodipodi:docname="snakeway_logo8.svg"
   xmlns:inkscape="http://www.inkscape.org/namespaces/inkscape"
   xmlns:sodipodi="http://sodipodi.sourceforge.net/DTD/sodipodi-0.dtd"
   xmlns="http://www.w3.org/2000/svg"
   xmlns:svg="http://www.w3.org/2000/svg">
  <sodipodi:namedview
     id="namedview1"
     pagecolor="#ffffff"
     bordercolor="#000000"
     borderopacity="0.25"
     inkscape:showpageshadow="2"
     inkscape:pageopacity="0.0"
     inkscape:pagecheckerboard="0"
     inkscape:deskcolor="#d1d1d1"
     inkscape:document-units="mm"
     inkscape:zoom="1.2989119"
     inkscape:cx="66.979138"
     inkscape:cy="332.20113"
     inkscape:window-width="2560"
     inkscape:window-height="1294"
     inkscape:window-x="0"
     inkscape:window-y="30"
     inkscape:window-maximized="1"
     inkscape:current-layer="g141" />
  <defs
     id="defs1">
    <rect
       x="291.78979"
       y="336.42929"
       width="217.75359"
       height="227.55249"
       id="rect22" />
    <filter
       inkscape:label="Pixellize"
       inkscape:menu="Pixel Tools"
       inkscape:menu-tooltip="Reduce or remove antialiasing around shapes"
       style="color-interpolation-filters:sRGB"
       id="filter27"
       x="-0.019366981"
       y="-0.0086983833"
       width="1.0363748"
       height="1.021615">
      <feColorMatrix
         values="1 0 0 0 0 0 1 0 0 0 0 0 1 0 0 0 0 0 1000 -500 "
         id="feColorMatrix27" />
    </filter>
  </defs>
  <g
     inkscape:groupmode="layer"
     id="g136"
     inkscape:label="monochrome_raw"
     transform="translate(-57.599323,-66.085627)"
     style="display:none">
    <path
       id="path136"
       style="baseline-shift:baseline;display:none;overflow:visible;vector-effect:none;stroke-width:1.05383;stroke-linecap:round;stroke-linejoin:round;stroke-miterlimit:25.2;enable-background:accumulate;stop-color:#000000;stop-opacity:1"
       d="m 79.900611,123.50606 a 0.73775774,0.73775774 0 0 0 -0.694344,1.0554 l 13.3581,27.77868 a 0.73775774,0.73775774 0 0 0 0.947031,0.35997 l 17.379852,-7.21029 a 0.73775774,0.73775774 0 0 0 0.12744,-1.29448 L 80.280732,123.62913 a 0.73775774,0.73775774 0 0 0 -0.380121,-0.12307 z m 1.808563,2.85252 27.341926,18.29802 -15.459648,6.41357 z m 0,0 11.882278,24.71159 15.459648,-6.41357 z M 116.08659,139.916 a 0.73775774,0.73775774 0 0 0 -0.19987,0.0414 l -7.29579,2.61346 1.52592,1.0211 5.08043,-1.81946 -1.3277,7.78264 -4.42094,-3.46682 -1.56404,0.64861 6.05088,4.74278 a 0.73775774,0.73775774 0 0 0 1.1812,-0.45691 l 1.74539,-10.24635 a 0.73775774,0.73775774 0 0 0 -0.77548,-0.86043 z m -0.88931,1.85649 -5.08043,1.81946 0.90184,0.60339 a 0.73775774,0.73775774 0 0 1 -0.12744,1.29448 l -1.44261,0.59849 4.42094,3.46682 z m 3.02952,-21.1511 a 0.73775774,0.73775774 0 0 0 -0.20586,0.0213 0.73775774,0.73775774 0 0 0 -0.54513,0.56801 l -4.01957,19.61754 1.62449,-0.58215 3.5289,-17.22411 10.89441,13.27151 -12.71985,4.94047 -0.28862,1.69474 14.49246,-5.62827 a 0.73775774,0.73775774 0 0 0 0.30279,-1.15507 l -12.52271,-15.25598 a 0.73775774,0.73775774 0 0 0 -0.54131,-0.26792 z m 0.38283,2.40052 -3.5289,17.22411 0.80599,-0.28863 a 0.73775774,0.73775774 0 0 1 0.19987,-0.0414 0.73775774,0.73775774 0 0 1 0.77548,0.86044 l -0.0779,0.45746 12.71985,-4.94047 z m 3.32143,-14.69669 a 0.73775774,0.73775774 0 0 0 -0.10022,0.005 l -13.51059,1.59509 a 0.73775774,0.73775774 0 0 0 -0.49993,1.17902 l 9.23996,12.13496 0.39264,-1.91747 -7.677,-10.08352 11.19447,-1.32116 -2.41251,10.79692 a 0.73775774,0.73775774 0 0 1 0.21021,0.17535 l 0.99277,1.20953 2.87486,-12.8756 a 0.73775774,0.73775774 0 0 0 -0.70469,-0.89803 z m -0.96065,1.59183 -11.19447,1.32116 7.67701,10.08352 0.0229,-0.11109 a 0.73775774,0.73775774 0 0 1 0.54513,-0.56801 0.73775774,0.73775774 0 0 1 0.20586,-0.0213 0.73775774,0.73775774 0 0 1 0.3311,0.0926 z M 98.566771,94.969309 a 0.73775774,0.73775774 0 0 0 -0.09313,0.0027 0.73775774,0.73775774 0 0 0 -0.590873,0.401359 l -9.714833,19.201482 a 0.73775774,0.73775774 0 0 0 0.736822,1.06631 l 20.674043,-2.22736 -1.04505,-1.37289 -18.435264,1.9861 8.568483,-16.94147 9.806331,12.82168 1.70237,-0.20094 -11.049613,-14.448382 a 0.73775774,0.73775774 0 0 0 -0.559288,-0.288629 z m 0.100209,2.116253 -8.568484,16.941468 18.435254,-1.9861 -0.7134,-0.93669 a 0.73775774,0.73775774 0 0 1 0.49993,-1.17902 l 0.15302,-0.018 z M 88.466372,83.392543 a 0.73775774,0.73775774 0 0 0 -0.570179,1.189372 l 9.345605,12.058721 0.640975,-1.267246 a 0.73775774,0.73775774 0 0 1 0.114907,-0.165554 l -7.598579,-9.80469 10.818159,2.873226 -2.723463,6.694026 a 0.73775774,0.73775774 0 0 1 0.07298,-0.0011 0.73775774,0.73775774 0 0 1 0.559288,0.288629 l 0.551119,0.720485 3.223936,-7.922608 a 0.73775774,0.73775774 0 0 0 -0.49395,-0.990053 L 88.668413,83.416505 a 0.73775774,0.73775774 0 0 0 -0.202041,-0.02397 z m 1.932729,2.010603 7.598579,9.80469 a 0.73775774,0.73775774 0 0 1 0.475967,-0.235805 0.73775774,0.73775774 0 0 1 0.02015,-0.0017 l 2.723463,-6.694026 z M 108.9155,73.007872 a 0.73775774,0.73775774 0 0 0 -0.61538,0.376852 l -7.4303,13.2726 1.47146,0.391011 6.65863,-11.891535 12.46662,18.686854 -18.52076,-5.946313 a 0.73775774,0.73775774 0 0 1 -0.0447,0.158474 l -0.49558,1.218234 20.6234,6.622141 a 0.73775774,0.73775774 0 0 0 0.83757,-1.113674 L 109.55757,73.335167 a 0.73775774,0.73775774 0 0 0 -0.64207,-0.327295 z m 0.0844,2.148928 -6.65863,11.891535 0.0659,0.01743 a 0.73775774,0.73775774 0 0 1 0.5386,0.83158 l 18.52075,5.946312 z" />
  </g>
  <g
     inkscape:groupmode="layer"
     id="g138"
     inkscape:label="color-dark"
     transform="translate(-57.599322,-66.085627)">
    <path
       id="circle108"
       style="display:inline;fill:#000000;fill-opacity:1;stroke:#000000;stroke-width:1.71166;stroke-linecap:round;stroke-linejoin:bevel;stroke-miterlimit:25.2;stroke-dasharray:none;stroke-opacity:0"
       d="m 105.00028,69.602444 a 43.883846,43.883846 0 0 0 -43.884141,43.884146 43.883846,43.883846 0 0 0 43.884141,43.88362 43.883846,43.883846 0 0 0 43.88363,-43.88362 43.883846,43.883846 0 0 0 -43.88363,-43.884146 z m 3.91501,3.405477 a 0.73775774,0.73775774 0 0 1 0.64234,0.327111 l 14.30868,21.44727 a 0.73775774,0.73775774 0 0 1 -0.83767,1.114144 l -20.62303,-6.622335 -2.728518,6.703984 v 5.17e-4 l 10.498588,13.727848 11.6551,-1.37615 a 0.73775774,0.73775774 0 0 1 0.10025,-0.005 0.73775774,0.73775774 0 0 1 0.70487,0.89814 l -2.87528,12.87518 v 5.2e-4 l 11.53005,14.04617 a 0.73775774,0.73775774 0 0 1 -0.30283,1.15549 l -14.49214,5.62808 -1.37924,8.09408 a 0.73775774,0.73775774 0 0 1 -1.18081,0.45682 l -6.05079,-4.74235 -14.373283,5.96294 A 0.73775774,0.73775774 0 0 1 92.564348,152.3402 L 79.206507,124.56136 a 0.73775774,0.73775774 0 0 1 0.694015,-1.05523 0.73775774,0.73775774 0 0 1 0.380338,0.12299 l 28.3099,18.942 4.86534,-1.74305 3.60443,-17.58859 -7.48172,-9.82576 -20.674187,2.22726 a 0.73775774,0.73775774 0 0 1 -0.736906,-1.06609 L 97.241582,96.640587 87.896416,84.581891 a 0.73775774,0.73775774 0 0 1 0.569991,-1.189591 0.73775774,0.73775774 0 0 1 0.202055,0.02429 l 13.672548,3.631819 -1.47123,-0.39119 7.43056,-13.272575 a 0.73775774,0.73775774 0 0 1 0.61495,-0.376721 z m -6.37997,14.107149 a 0.73775774,0.73775774 0 0 1 0.0594,0.02997 0.73775774,0.73775774 0 0 0 -0.0594,-0.02997 z m 0.0868,0.04858 a 0.73775774,0.73775774 0 0 1 0.0553,0.03927 0.73775774,0.73775774 0 0 0 -0.0553,-0.03927 z m 0.0837,0.06459 a 0.73775774,0.73775774 0 0 1 0.047,0.04393 0.73775774,0.73775774 0 0 0 -0.047,-0.04393 z m 0.0734,0.07441 a 0.73775774,0.73775774 0 0 1 0.0372,0.04651 0.73775774,0.73775774 0 0 0 -0.0372,-0.04651 z m 0.0599,0.08165 a 0.73775774,0.73775774 0 0 1 0.0326,0.05478 0.73775774,0.73775774 0 0 0 -0.0326,-0.05478 z m 0.0476,0.08733 a 0.73775774,0.73775774 0 0 1 0.0243,0.05943 0.73775774,0.73775774 0 0 0 -0.0243,-0.05943 z m 0.0362,0.09612 a 0.73775774,0.73775774 0 0 1 0.016,0.06305 0.73775774,0.73775774 0 0 0 -0.016,-0.06305 z m 0.0222,0.09767 a 0.73775774,0.73775774 0 0 1 0.007,0.06718 0.73775774,0.73775774 0 0 0 -0.007,-0.06718 z m 0.009,0.103869 a 0.73775774,0.73775774 0 0 1 -0.002,0.06046 0.73775774,0.73775774 0 0 0 0.002,-0.06046 z m -0.006,0.10387 a 0.73775774,0.73775774 0 0 1 -0.0124,0.0708 0.73775774,0.73775774 0 0 0 0.0103,-0.04651 0.73775774,0.73775774 0 0 0 0.002,-0.02429 z m -0.016,0.08888 a 0.73775774,0.73775774 0 0 1 -0.0305,0.09353 0.73775774,0.73775774 0 0 0 0.0305,-0.09353 z m -4.365104,7.007324 a 0.73775774,0.73775774 0 0 0 -0.07286,0.001 0.73775774,0.73775774 0 0 0 -0.02015,0.0016 0.73775774,0.73775774 0 0 1 0.09302,-0.0026 z m 9.906884,14.938107 -0.15296,0.0176 a 0.73775774,0.73775774 0 0 0 -0.1018,0.0196 0.73775774,0.73775774 0 0 1 0.1018,-0.0191 z m -0.25476,0.0372 a 0.73775774,0.73775774 0 0 0 -0.18965,0.0801 0.73775774,0.73775774 0 0 1 0.18965,-0.0801 z m -0.2744,0.13901 a 0.73775774,0.73775774 0 0 0 -0.076,0.0703 0.73775774,0.73775774 0 0 1 0,5.2e-4 0.73775774,0.73775774 0 0 1 0.076,-0.0708 z m 10.28257,10.53786 a 0.73775774,0.73775774 0 0 1 0.0941,0.01 0.73775774,0.73775774 0 0 0 -0.0941,-0.01 z m 0.12506,0.0165 a 0.73775774,0.73775774 0 0 1 0.0677,0.0176 0.73775774,0.73775774 0 0 0 -0.0677,-0.0176 z m 0.0946,0.0269 a 0.73775774,0.73775774 0 0 1 0.063,0.0258 0.73775774,0.73775774 0 0 0 -0.063,-0.0258 z m 0.0904,0.0393 a 0.73775774,0.73775774 0 0 1 0.0569,0.0331 0.73775774,0.73775774 0 0 0 -0.0357,-0.0233 0.73775774,0.73775774 0 0 0 -0.0212,-0.01 z m 0.0873,0.0522 a 0.73775774,0.73775774 0 0 1 0.0506,0.0408 0.73775774,0.73775774 0 0 0 -0.0506,-0.0408 z m 0.0765,0.0625 a 0.73775774,0.73775774 0 0 1 0.0672,0.0703 0.73775774,0.73775774 0 0 0 -0.0672,-0.0703 z m -1.22473,0.3917 -0.0233,0.11111 -0.25683,1.25522 z"
       transform="translate(1.2916667e-6)" />
    <path
       id="path138"
       style="display:inline;fill:#247f00;fill-opacity:1;stroke:#000000;stroke-width:1.71166;stroke-linecap:round;stroke-linejoin:bevel;stroke-miterlimit:25.2;stroke-dasharray:none;stroke-opacity:0"
       d="m 105.00028,69.602444 a 43.883846,43.883846 0 0 0 -43.884141,43.884146 43.883846,43.883846 0 0 0 43.884141,43.88362 43.883846,43.883846 0 0 0 43.88363,-43.88362 43.883846,43.883846 0 0 0 -43.88363,-43.884146 z m 3.91501,3.405477 a 0.73775774,0.73775774 0 0 1 0.64234,0.327111 l 14.30868,21.44727 a 0.73775774,0.73775774 0 0 1 -0.83767,1.114144 l -20.62303,-6.622335 -2.728518,6.703984 v 5.17e-4 l 10.498588,13.727848 11.6551,-1.37615 a 0.73775774,0.73775774 0 0 1 0.10025,-0.005 0.73775774,0.73775774 0 0 1 0.70487,0.89814 l -2.87528,12.87518 v 5.2e-4 l 11.53005,14.04617 a 0.73775774,0.73775774 0 0 1 -0.30283,1.15549 l -14.49214,5.62808 -1.37924,8.09408 a 0.73775774,0.73775774 0 0 1 -1.18081,0.45682 l -6.05079,-4.74235 -14.373283,5.96294 A 0.73775774,0.73775774 0 0 1 92.564348,152.3402 L 79.206507,124.56136 a 0.73775774,0.73775774 0 0 1 0.694015,-1.05523 0.73775774,0.73775774 0 0 1 0.380338,0.12299 l 28.3099,18.942 4.86534,-1.74305 3.60443,-17.58859 -7.48172,-9.82576 -20.674187,2.22726 a 0.73775774,0.73775774 0 0 1 -0.736906,-1.06609 L 97.241582,96.640587 87.896416,84.581891 a 0.73775774,0.73775774 0 0 1 0.569991,-1.189591 0.73775774,0.73775774 0 0 1 0.202055,0.02429 l 13.672548,3.631819 -1.47123,-0.39119 7.43056,-13.272575 a 0.73775774,0.73775774 0 0 1 0.61495,-0.376721 z m -6.37997,14.107149 a 0.73775774,0.73775774 0 0 1 0.0594,0.02997 0.73775774,0.73775774 0 0 0 -0.0594,-0.02997 z m 0.0868,0.04858 a 0.73775774,0.73775774 0 0 1 0.0553,0.03927 0.73775774,0.73775774 0 0 0 -0.0553,-0.03927 z m 0.0837,0.06459 a 0.73775774,0.73775774 0 0 1 0.047,0.04393 0.73775774,0.73775774 0 0 0 -0.047,-0.04393 z m 0.0734,0.07441 a 0.73775774,0.73775774 0 0 1 0.0372,0.04651 0.73775774,0.73775774 0 0 0 -0.0372,-0.04651 z m 0.0599,0.08165 a 0.73775774,0.73775774 0 0 1 0.0326,0.05478 0.73775774,0.73775774 0 0 0 -0.0326,-0.05478 z m 0.0476,0.08733 a 0.73775774,0.73775774 0 0 1 0.0243,0.05943 0.73775774,0.73775774 0 0 0 -0.0243,-0.05943 z m 0.0362,0.09612 a 0.73775774,0.73775774 0 0 1 0.016,0.06305 0.73775774,0.73775774 0 0 0 -0.016,-0.06305 z m 0.0222,0.09767 a 0.73775774,0.73775774 0 0 1 0.007,0.06718 0.73775774,0.73775774 0 0 0 -0.007,-0.06718 z m 0.009,0.103869 a 0.73775774,0.73775774 0 0 1 -0.002,0.06046 0.73775774,0.73775774 0 0 0 0.002,-0.06046 z m -0.006,0.10387 a 0.73775774,0.73775774 0 0 1 -0.0124,0.0708 0.73775774,0.73775774 0 0 0 0.0103,-0.04651 0.73775774,0.73775774 0 0 0 0.002,-0.02429 z m -0.016,0.08888 a 0.73775774,0.73775774 0 0 1 -0.0305,0.09353 0.73775774,0.73775774 0 0 0 0.0305,-0.09353 z m -4.365104,7.007324 a 0.73775774,0.73775774 0 0 0 -0.07286,0.001 0.73775774,0.73775774 0 0 0 -0.02015,0.0016 0.73775774,0.73775774 0 0 1 0.09302,-0.0026 z m 9.906884,14.938107 -0.15296,0.0176 a 0.73775774,0.73775774 0 0 0 -0.1018,0.0196 0.73775774,0.73775774 0 0 1 0.1018,-0.0191 z m -0.25476,0.0372 a 0.73775774,0.73775774 0 0 0 -0.18965,0.0801 0.73775774,0.73775774 0 0 1 0.18965,-0.0801 z m -0.2744,0.13901 a 0.73775774,0.73775774 0 0 0 -0.076,0.0703 0.73775774,0.73775774 0 0 1 0,5.2e-4 0.73775774,0.73775774 0 0 1 0.076,-0.0708 z m 10.28257,10.53786 a 0.73775774,0.73775774 0 0 1 0.0941,0.01 0.73775774,0.73775774 0 0 0 -0.0941,-0.01 z m 0.12506,0.0165 a 0.73775774,0.73775774 0 0 1 0.0677,0.0176 0.73775774,0.73775774 0 0 0 -0.0677,-0.0176 z m 0.0946,0.0269 a 0.73775774,0.73775774 0 0 1 0.063,0.0258 0.73775774,0.73775774 0 0 0 -0.063,-0.0258 z m 0.0904,0.0393 a 0.73775774,0.73775774 0 0 1 0.0569,0.0331 0.73775774,0.73775774 0 0 0 -0.0357,-0.0233 0.73775774,0.73775774 0 0 0 -0.0212,-0.01 z m 0.0873,0.0522 a 0.73775774,0.73775774 0 0 1 0.0506,0.0408 0.73775774,0.73775774 0 0 0 -0.0506,-0.0408 z m 0.0765,0.0625 a 0.73775774,0.73775774 0 0 1 0.0672,0.0703 0.73775774,0.73775774 0 0 0 -0.0672,-0.0703 z m -1.22473,0.3917 -0.0233,0.11111 -0.25683,1.25522 z" />
    <circle
       style="fill:#ffffff;fill-opacity:0;stroke:#247f00;stroke-width:5.75278;stroke-linecap:round;stroke-linejoin:round;stroke-miterlimit:25.2;stroke-dasharray:none;stroke-opacity:1"
       id="path139"
       cx="105.00005"
       cy="113.48636"
       r="44.524342" />
  </g>
  <g
     inkscape:groupmode="layer"
     id="g141"
     inkscape:label="color-light"
     transform="translate(-57.599322,-66.085627)">
    <path
       id="path140"
       style="display:inline;fill:#000000;fill-opacity:1;stroke:#000000;stroke-width:1.71166;stroke-linecap:round;stroke-linejoin:bevel;stroke-miterlimit:25.2;stroke-dasharray:none;stroke-opacity:0"
       d="m 105.00028,69.602444 a 43.883846,43.883846 0 0 0 -43.884141,43.884146 43.883846,43.883846 0 0 0 43.884141,43.88362 43.883846,43.883846 0 0 0 43.88363,-43.88362 43.883846,43.883846 0 0 0 -43.88363,-43.884146 z m 3.91501,3.405477 a 0.73775774,0.73775774 0 0 1 0.64234,0.327111 l 14.30868,21.44727 a 0.73775774,0.73775774 0 0 1 -0.83767,1.114144 l -20.62303,-6.622335 -2.728518,6.703984 v 5.17e-4 l 10.498588,13.727848 11.6551,-1.37615 a 0.73775774,0.73775774 0 0 1 0.10025,-0.005 0.73775774,0.73775774 0 0 1 0.70487,0.89814 l -2.87528,12.87518 v 5.2e-4 l 11.53005,14.04617 a 0.73775774,0.73775774 0 0 1 -0.30283,1.15549 l -14.49214,5.62808 -1.37924,8.09408 a 0.73775774,0.73775774 0 0 1 -1.18081,0.45682 l -6.05079,-4.74235 -14.373283,5.96294 A 0.73775774,0.73775774 0 0 1 92.564348,152.3402 L 79.206507,124.56136 a 0.73775774,0.73775774 0 0 1 0.694015,-1.05523 0.73775774,0.73775774 0 0 1 0.380338,0.12299 l 28.3099,18.942 4.86534,-1.74305 3.60443,-17.58859 -7.48172,-9.82576 -20.674187,2.22726 a 0.73775774,0.73775774 0 0 1 -0.736906,-1.06609 L 97.241582,96.640587 87.896416,84.581891 a 0.73775774,0.73775774 0 0 1 0.569991,-1.189591 0.73775774,0.73775774 0 0 1 0.202055,0.02429 l 13.672548,3.631819 -1.47123,-0.39119 7.43056,-13.272575 a 0.73775774,0.73775774 0 0 1 0.61495,-0.376721 z m -6.37997,14.107149 a 0.73775774,0.73775774 0 0 1 0.0594,0.02997 0.73775774,0.73775774 0 0 0 -0.0594,-0.02997 z m 0.0868,0.04858 a 0.73775774,0.73775774 0 0 1 0.0553,0.03927 0.73775774,0.73775774 0 0 0 -0.0553,-0.03927 z m 0.0837,0.06459 a 0.73775774,0.73775774 0 0 1 0.047,0.04393 0.73775774,0.73775774 0 0 0 -0.047,-0.04393 z m 0.0734,0.07441 a 0.73775774,0.73775774 0 0 1 0.0372,0.04651 0.73775774,0.73775774 0 0 0 -0.0372,-0.04651 z m 0.0599,0.08165 a 0.73775774,0.73775774 0 0 1 0.0326,0.05478 0.73775774,0.73775774 0 0 0 -0.0326,-0.05478 z m 0.0476,0.08733 a 0.73775774,0.73775774 0 0 1 0.0243,0.05943 0.73775774,0.73775774 0 0 0 -0.0243,-0.05943 z m 0.0362,0.09612 a 0.73775774,0.73775774 0 0 1 0.016,0.06305 0.73775774,0.73775774 0 0 0 -0.016,-0.06305 z m 0.0222,0.09767 a 0.73775774,0.73775774 0 0 1 0.007,0.06718 0.73775774,0.73775774 0 0 0 -0.007,-0.06718 z m 0.009,0.103869 a 0.73775774,0.73775774 0 0 1 -0.002,0.06046 0.73775774,0.73775774 0 0 0 0.002,-0.06046 z m -0.006,0.10387 a 0.73775774,0.73775774 0 0 1 -0.0124,0.0708 0.73775774,0.73775774 0 0 0 0.0103,-0.04651 0.73775774,0.73775774 0 0 0 0.002,-0.02429 z m -0.016,0.08888 a 0.73775774,0.73775774 0 0 1 -0.0305,0.09353 0.73775774,0.73775774 0 0 0 0.0305,-0.09353 z m -4.365104,7.007324 a 0.73775774,0.73775774 0 0 0 -0.07286,0.001 0.73775774,0.73775774 0 0 0 -0.02015,0.0016 0.73775774,0.73775774 0 0 1 0.09302,-0.0026 z m 9.906884,14.938107 -0.15296,0.0176 a 0.73775774,0.73775774 0 0 0 -0.1018,0.0196 0.73775774,0.73775774 0 0 1 0.1018,-0.0191 z m -0.25476,0.0372 a 0.73775774,0.73775774 0 0 0 -0.18965,0.0801 0.73775774,0.73775774 0 0 1 0.18965,-0.0801 z m -0.2744,0.13901 a 0.73775774,0.73775774 0 0 0 -0.076,0.0703 0.73775774,0.73775774 0 0 1 0,5.2e-4 0.73775774,0.73775774 0 0 1 0.076,-0.0708 z m 10.28257,10.53786 a 0.73775774,0.73775774 0 0 1 0.0941,0.01 0.73775774,0.73775774 0 0 0 -0.0941,-0.01 z m 0.12506,0.0165 a 0.73775774,0.73775774 0 0 1 0.0677,0.0176 0.73775774,0.73775774 0 0 0 -0.0677,-0.0176 z m 0.0946,0.0269 a 0.73775774,0.73775774 0 0 1 0.063,0.0258 0.73775774,0.73775774 0 0 0 -0.063,-0.0258 z m 0.0904,0.0393 a 0.73775774,0.73775774 0 0 1 0.0569,0.0331 0.73775774,0.73775774 0 0 0 -0.0357,-0.0233 0.73775774,0.73775774 0 0 0 -0.0212,-0.01 z m 0.0873,0.0522 a 0.73775774,0.73775774 0 0 1 0.0506,0.0408 0.73775774,0.73775774 0 0 0 -0.0506,-0.0408 z m 0.0765,0.0625 a 0.73775774,0.73775774 0 0 1 0.0672,0.0703 0.73775774,0.73775774 0 0 0 -0.0672,-0.0703 z m -1.22473,0.3917 -0.0233,0.11111 -0.25683,1.25522 z"
       transform="translate(1.2916667e-6)" />
    <path
       id="path141"
       style="display:inline;fill:#aad7a0;fill-opacity:1;stroke:#000000;stroke-width:1.71166;stroke-linecap:round;stroke-linejoin:bevel;stroke-miterlimit:25.2;stroke-dasharray:none;stroke-opacity:0"
       d="m 105.00028,69.602444 a 43.883846,43.883846 0 0 0 -43.884141,43.884146 43.883846,43.883846 0 0 0 43.884141,43.88362 43.883846,43.883846 0 0 0 43.88363,-43.88362 43.883846,43.883846 0 0 0 -43.88363,-43.884146 z m 3.91501,3.405477 a 0.73775774,0.73775774 0 0 1 0.64234,0.327111 l 14.30868,21.44727 a 0.73775774,0.73775774 0 0 1 -0.83767,1.114144 l -20.62303,-6.622335 -2.728518,6.703984 v 5.17e-4 l 10.498588,13.727848 11.6551,-1.37615 a 0.73775774,0.73775774 0 0 1 0.10025,-0.005 0.73775774,0.73775774 0 0 1 0.70487,0.89814 l -2.87528,12.87518 v 5.2e-4 l 11.53005,14.04617 a 0.73775774,0.73775774 0 0 1 -0.30283,1.15549 l -14.49214,5.62808 -1.37924,8.09408 a 0.73775774,0.73775774 0 0 1 -1.18081,0.45682 l -6.05079,-4.74235 -14.373283,5.96294 A 0.73775774,0.73775774 0 0 1 92.564348,152.3402 L 79.206507,124.56136 a 0.73775774,0.73775774 0 0 1 0.694015,-1.05523 0.73775774,0.73775774 0 0 1 0.380338,0.12299 l 28.3099,18.942 4.86534,-1.74305 3.60443,-17.58859 -7.48172,-9.82576 -20.674187,2.22726 a 0.73775774,0.73775774 0 0 1 -0.736906,-1.06609 L 97.241582,96.640587 87.896416,84.581891 a 0.73775774,0.73775774 0 0 1 0.569991,-1.189591 0.73775774,0.73775774 0 0 1 0.202055,0.02429 l 13.672548,3.631819 -1.47123,-0.39119 7.43056,-13.272575 a 0.73775774,0.73775774 0 0 1 0.61495,-0.376721 z m -6.37997,14.107149 a 0.73775774,0.73775774 0 0 1 0.0594,0.02997 0.73775774,0.73775774 0 0 0 -0.0594,-0.02997 z m 0.0868,0.04858 a 0.73775774,0.73775774 0 0 1 0.0553,0.03927 0.73775774,0.73775774 0 0 0 -0.0553,-0.03927 z m 0.0837,0.06459 a 0.73775774,0.73775774 0 0 1 0.047,0.04393 0.73775774,0.73775774 0 0 0 -0.047,-0.04393 z m 0.0734,0.07441 a 0.73775774,0.73775774 0 0 1 0.0372,0.04651 0.73775774,0.73775774 0 0 0 -0.0372,-0.04651 z m 0.0599,0.08165 a 0.73775774,0.73775774 0 0 1 0.0326,0.05478 0.73775774,0.73775774 0 0 0 -0.0326,-0.05478 z m 0.0476,0.08733 a 0.73775774,0.73775774 0 0 1 0.0243,0.05943 0.73775774,0.73775774 0 0 0 -0.0243,-0.05943 z m 0.0362,0.09612 a 0.73775774,0.73775774 0 0 1 0.016,0.06305 0.73775774,0.73775774 0 0 0 -0.016,-0.06305 z m 0.0222,0.09767 a 0.73775774,0.73775774 0 0 1 0.007,0.06718 0.73775774,0.73775774 0 0 0 -0.007,-0.06718 z m 0.009,0.103869 a 0.73775774,0.73775774 0 0 1 -0.002,0.06046 0.73775774,0.73775774 0 0 0 0.002,-0.06046 z m -0.006,0.10387 a 0.73775774,0.73775774 0 0 1 -0.0124,0.0708 0.73775774,0.73775774 0 0 0 0.0103,-0.04651 0.73775774,0.73775774 0 0 0 0.002,-0.02429 z m -0.016,0.08888 a 0.73775774,0.73775774 0 0 1 -0.0305,0.09353 0.73775774,0.73775774 0 0 0 0.0305,-0.09353 z m -4.365104,7.007324 a 0.73775774,0.73775774 0 0 0 -0.07286,0.001 0.73775774,0.73775774 0 0 0 -0.02015,0.0016 0.73775774,0.73775774 0 0 1 0.09302,-0.0026 z m 9.906884,14.938107 -0.15296,0.0176 a 0.73775774,0.73775774 0 0 0 -0.1018,0.0196 0.73775774,0.73775774 0 0 1 0.1018,-0.0191 z m -0.25476,0.0372 a 0.73775774,0.73775774 0 0 0 -0.18965,0.0801 0.73775774,0.73775774 0 0 1 0.18965,-0.0801 z m -0.2744,0.13901 a 0.73775774,0.73775774 0 0 0 -0.076,0.0703 0.73775774,0.73775774 0 0 1 0,5.2e-4 0.73775774,0.73775774 0 0 1 0.076,-0.0708 z m 10.28257,10.53786 a 0.73775774,0.73775774 0 0 1 0.0941,0.01 0.73775774,0.73775774 0 0 0 -0.0941,-0.01 z m 0.12506,0.0165 a 0.73775774,0.73775774 0 0 1 0.0677,0.0176 0.73775774,0.73775774 0 0 0 -0.0677,-0.0176 z m 0.0946,0.0269 a 0.73775774,0.73775774 0 0 1 0.063,0.0258 0.73775774,0.73775774 0 0 0 -0.063,-0.0258 z m 0.0904,0.0393 a 0.73775774,0.73775774 0 0 1 0.0569,0.0331 0.73775774,0.73775774 0 0 0 -0.0357,-0.0233 0.73775774,0.73775774 0 0 0 -0.0212,-0.01 z m 0.0873,0.0522 a 0.73775774,0.73775774 0 0 1 0.0506,0.0408 0.73775774,0.73775774 0 0 0 -0.0506,-0.0408 z m 0.0765,0.0625 a 0.73775774,0.73775774 0 0 1 0.0672,0.0703 0.73775774,0.73775774 0 0 0 -0.0672,-0.0703 z m -1.22473,0.3917 -0.0233,0.11111 -0.25683,1.25522 z" />
    <circle
       style="fill:#ffffff;fill-opacity:0;stroke:#aad7a0;stroke-width:5.75278;stroke-linecap:round;stroke-linejoin:round;stroke-miterlimit:25.2;stroke-dasharray:none;stroke-opacity:1"
       id="circle141"
       cx="105.00005"
       cy="113.48636"
       r="44.524342" />
  </g>
</svg>
